:SAMPLES-PER-SECOND 30
:FULLY-SPECIFIED
:DEGREES
16
root  78.0748 40.2992 -4.38885 -172.167 -86.3115 173.336
RightUpLeg  -1.31901 -8.69211 -7.43247
RightLeg  6.16093 -0.691696 2.20412
RightFoot  -3.3651 -0.111291 1.2664
RightToes  1.74622e-010 0 -3.6325e-017
Spine  5.40574 -0.251687 2.10988
Spine1  3.99983 0.213215 -2.14325
HEad  -6.96221 4.55209 -1.34987
LeftShoulder1  2.3509 -4.10497 -24.5839
LeftArm  -21.5259 14.8639 -10.1221
LeftForeArm  22.9486 -23.61 -3.85259
LeftHand  -0.244104 0.0205437 5.32207
RightShoulder  1.89972 3.77931 19.6494
RightArm  -13.8552 -14.2024 10.7308
RightForeArm  -5.5829 30.7089 7.01316
RightHand  -1.37576 3.13443 -18.8237
LeftUpLeg  -0.286364 6.25591 3.76124
LeftLeg  4.12388 14.4995 -3.88881
LeftFoot  -4.78997 0.0765303 -0.802772
LeftToes  -5.82109e-011 8.55049e-011 -1.09726e-011
17
root  78.0036 40.3072 -4.39454 -171.146 -86.2254 172.506
RightUpLeg  -1.71966 -8.99892 -7.47272
RightLeg  6.63036 -0.57207 2.24697
RightFoot  -3.13956 -0.0893815 0.936849
RightToes  1.74622e-010 0 -3.6325e-017
Spine  5.43398 -0.409614 2.29473
Spine1  4.60835 0.0900492 -2.30481
HEad  -6.81527 4.81147 -1.83888
LeftShoulder1  3.35822 -5.85122 -29.7341
LeftArm  -19.1741 14.779 -10.5261
LeftForeArm  23.1629 -25.4851 -4.23115
LeftHand  -0.244104 0.0205437 5.32207
RightShoulder  2.45981 4.83771 23.2803
RightArm  -11.3958 -15.0967 13.5017
RightForeArm  -3.06505 32.1718 7.26276
RightHand  -1.29875 3.04589 -17.9817
LeftUpLeg  -0.455549 6.22183 3.64115
LeftLeg  4.21295 14.7205 -3.84072
LeftFoot  -4.5123 0.0611794 -0.564198
LeftToes  -5.82109e-011 8.55049e-011 -1.09726e-011
18
root  77.9238 40.3234 -4.40863 -169.765 -86.2242 171.367
RightUpLeg  -2.00416 -9.24744 -7.53113
RightLeg  6.85256 -0.636093 2.3271
RightFoot  -2.93873 -0.0754542 0.725265
RightToes  1.74622e-010 0 -3.6325e-017
Spine  4.92314 -0.588421 2.64019
Spine1  5.95519 -0.00445276 -2.61946
HEad  -6.62527 4.97903 -2.35672
LeftShoulder1  4.83625 -8.02072 -35.8278
LeftArm  -16.4068 13.4751 -10.0116
LeftForeArm  23.2803 -25.5201 -4.2247
LeftHand  -0.244104 0.0205437 5.32207
RightShoulder  3.13482 5.87009 27.4001
RightArm  -9.09003 -14.6796 16.7178
RightForeArm  -2.55584 30.7157 6.86054
RightHand  -1.2403 2.91547 -17.4537
LeftUpLeg  -0.559111 6.07352 3.47682
LeftLeg  4.0713 14.9982 -3.77716
LeftFoot  -4.19795 0.0529703 -0.436621
LeftToes  -5.82109e-011 8.55049e-011 -1.09726e-011
19
root  77.8424 40.3341 -4.42481 -168.584 -86.222 170.459
RightUpLeg  -2.1402 -9.32355 -7.57711
RightLeg  6.76773 -0.815827 2.41655
RightFoot  -2.87296 -0.0691013 0.626917
RightToes  1.74622e-010 0 -3.6325e-017
Spine  4.33958 -0.712466 2.98007
Spine1  7.35732 -0.0519589 -2.84987
HEad  -6.52623 5.08335 -2.67922
LeftShoulder1  6.47526 -10.0069 -41.5837
LeftArm  -12.9016 11.2282 -10.2533
LeftForeArm  22.2999 -23.503 -3.90005
LeftHand  -0.244104 0.0205437 5.32207
RightShoulder  3.9356 6.97053 31.6258
RightArm  -6.64073 -13.434 20.1383
RightForeArm  -3.04397 26.905 5.91953
RightHand  -1.11435 2.44827 -16.6107
LeftUpLeg  -0.58638 5.88077 3.31697
LeftLeg  3.701 15.3161 -3.74949
LeftFoot  -3.91795 0.0395542 -0.228125
LeftToes  -5.82109e-011 8.55049e-011 -1.09726e-011
20
root  77.7587 40.3335 -4.43939 -168.07 -86.137 170.21
RightUpLeg  -2.17721 -9.2687 -7.59052
RightLeg  6.5167 -0.898914 2.48449
RightFoot  -2.9232 -0.065556 0.569405
RightToes  1.74622e-010 0 -3.6325e-017
Spine  4.31892 -0.718689 3.12885
Spine1  7.82657 -0.0503156 -2.81798
HEad  -6.39033 5.04008 -2.57255
LeftShoulder1  7.78223 -11.3123 -45.8168
LeftArm  -9.32472 8.56807 -12.5797
LeftForeArm  21.5356 -19.9105 -3.83346
LeftHand  -0.244104 0.0205437 5.32207
RightShoulder  4.68793 7.9183 35.0924
RightArm  -4.98189 -12.1144 24.019
RightForeArm  -1.8007 21.5805 5.07641
RightHand  -0.902764 1.71194 -14.8716
LeftUpLeg  -0.660904 5.75788 3.21273
LeftLeg  3.47673 15.5948 -3.71281
LeftFoot  -3.73555 0.0207907 0.0634708
LeftToes  -5.82109e-011 8.55049e-011 -1.09726e-011
21
root  77.6632 40.3307 -4.45915 -168.184 -85.9587 170.57
RightUpLeg  -2.21603 -9.20444 -7.57004
RightLeg  6.31615 -0.798158 2.53509
RightFoot  -3.00374 -0.0600161 0.479768
RightToes  1.74622e-010 0 -3.6325e-017
Spine  4.50472 -0.720151 3.08645
Spine1  7.81684 -0.116548 -2.5534
HEad  -6.32452 5.23468 -2.27359
LeftShoulder1  8.58647 -11.9898 -48.3829
LeftArm  -8.21823 6.23978 -16.8069
LeftForeArm  22.9931 -16.0728 -4.55494
LeftHand  -0.244104 0.0205437 5.32207
RightShoulder  5.24322 8.58337 37.3646
RightArm  -7.41407 -10.9935 28.934
RightForeArm  3.70352 15.646 5.53131
RightHand  -0.689786 0.967108 -12.694
LeftUpLeg  -0.780374 5.72486 3.17647
LeftLeg  3.46944 15.8122 -3.65917
LeftFoot  -3.65993 0.00602299 0.292972
LeftToes  -5.82109e-011 8.55049e-011 -1.09726e-011
22
root  77.5447 40.3358 -4.4844 -169.21 -85.6319 171.827
RightUpLeg  -2.25652 -9.14733 -7.51744
RightLeg  6.15789 -0.53459 2.6196
RightFoot  -3.02272 -0.0567923 0.426489
RightToes  1.74622e-010 0 -3.6325e-017
Spine  4.05589 -0.868842 3.08232
Spine1  8.61958 -0.346849 -2.276
HEad  -6.70854 6.13338 -2.29913
LeftShoulder1  9.13514 -12.4111 -50.1055
LeftArm  -9.25834 4.85612 -21.891
LeftForeArm  24.5325 -13.5073 -5.09549
LeftHand  -0.244104 0.0205437 5.32207
RightShoulder  5.74131 9.2166 39.0423
RightArm  -11.3106 -10.0771 34.4964
RightForeArm  8.60109 11.27 5.83599
RightHand  -0.442863 -0.528293 -10.5228
LeftUpLeg  -0.731908 5.76364 3.22916
LeftLeg  3.30262 16.0744 -3.70222
LeftFoot  -3.61524 -0.00118564 0.405002
LeftToes  -5.82109e-011 8.55049e-011 -1.09726e-011
23
root  77.3984 40.3481 -4.50439 -171.548 -84.9206 174.357
RightUpLeg  -2.23659 -8.94448 -7.38095
RightLeg  5.87651 -0.0651792 2.68769
RightFoot  -2.92459 -0.0615997 0.499856
RightToes  1.74622e-010 0 -3.6325e-017
Spine  3.04551 -1.07237 3.22511
Spine1  10.2725 -0.611879 -2.12146
HEad  -7.68946 7.56121 -2.88057
LeftShoulder1  9.65613 -12.7872 -51.7163
LeftArm  -9.76963 4.30859 -26.8231
LeftForeArm  26.4147 -12.8641 -5.13503
LeftHand  -0.244104 0.0205437 5.32207
RightShoulder  6.33136 9.98539 40.7529
RightArm  -12.6086 -9.66586 38.5791
RightForeArm  9.60827 10.6673 5.66566
RightHand  -0.18818 -3.02138 -8.75524
LeftUpLeg  -0.339142 5.94846 3.42869
LeftLeg  2.75572 16.5724 -3.96885
LeftFoot  -3.53634 -0.00282277 0.430445
LeftToes  -5.82109e-011 8.55049e-011 -1.09726e-011
24
root  77.2354 40.3577 -4.5222 -174.156 -83.7171 177.19
RightUpLeg  -2.30204 -8.4811 -7.07501
RightLeg  5.529 0.558929 2.58554
RightFoot  -2.79516 -0.0666476 0.580507
RightToes  1.74622e-010 0 -3.6325e-017
Spine  2.41551 -1.08204 3.19378
Spine1  11.273 -0.724795 -1.81459
HEad  -8.95606 8.87599 -3.53493
LeftShoulder1  10.0707 -13.0674 -52.9897
LeftArm  -6.95527 3.80156 -30.7007
LeftForeArm  31.654 -13.6623 -5.30101
LeftHand  -0.244104 0.0205437 5.32207
RightShoulder  6.77677 10.5388 42.0005
RightArm  -10.0696 -10.007 39.3984
RightForeArm  8.28265 13.6138 5.63719
RightHand  -0.0763239 -4.55903 -8.20552
LeftUpLeg  0.203883 6.3168 3.76945
LeftLeg  2.0686 17.3707 -4.42618
LeftFoot  -3.51092 0.00242381 0.348907
LeftToes  -5.82109e-011 8.55049e-011 -1.09726e-011
25
root  77.0773 40.3552 -4.55821 -175.872 -82.5778 179.299
RightUpLeg  -2.57261 -7.90023 -6.62173
RightLeg  5.26338 0.910888 2.354
RightFoot  -2.83215 -0.0620099 0.51595
RightToes  1.74622e-010 0 -3.6325e-017
Spine  2.48704 -0.986821 2.66389
Spine1  10.8172 -0.872389 -0.968994
HEad  -10.0323 10.0714 -3.73195
LeftShoulder1  10.2488 -13.2642 -53.2829
LeftArm  2.04575 2.78391 -32.8109
LeftForeArm  37.6312 -15.711 -5.55502
LeftHand  -0.244104 0.0205437 5.32207
RightShoulder  6.7499 10.5197 41.8728
RightArm  -3.0767 -10.5197 37.7712
RightForeArm  5.1669 17.7552 5.37772
RightHand  -0.120693 -3.97675 -8.6471
LeftUpLeg  0.432836 6.70891 4.15407
LeftLeg  1.66675 18.0623 -4.81837
LeftFoot  -3.71958 0.0167741 0.125892
LeftToes  -5.82109e-011 8.55049e-011 -1.09726e-011
26
root  76.9321 40.3381 -4.62843 -176.849 -81.9858 -179.145
RightUpLeg  -2.9341 -7.44844 -6.17303
RightLeg  5.04864 0.851157 2.21785
RightFoot  -3.1759 -0.0595207 0.491442
RightToes  1.74622e-010 0 -3.6325e-017
Spine  2.64487 -1.07404 1.81863
Spine1  9.7956 -1.29932 0.25004
HEad  -10.0929 11.1488 -4.23421
LeftShoulder1  10.2411 -13.5082 -52.5086
LeftArm  16.4099 1.67253 -33.3083
LeftForeArm  37.2687 -19.3898 -4.73666
LeftHand  -0.244104 0.0205437 5.32207
RightShoulder  6.37492 10.1663 40.4675
RightArm  5.57782 -10.5795 35.8992
RightForeArm  2.3295 21.2536 4.98881
RightHand  -0.179654 -3.13614 -8.64308
LeftUpLeg  0.167171 6.97195 4.50105
LeftLeg  1.70701 18.3101 -4.94518
LeftFoot  -4.15025 0.0377351 -0.199855
LeftToes  -5.82109e-011 8.55049e-011 -1.09726e-011
27
root  76.7798 40.311 -4.72782 -177.658 -81.7981 -177.862
RightUpLeg  -2.95706 -7.22437 -5.88241
RightLeg  4.71145 0.720977 2.28064
RightFoot  -3.84859 -0.0812437 0.848433
RightToes  1.74622e-010 0 -3.6325e-017
Spine  2.61534 -1.43366 1.21917
Spine1  9.23526 -1.90777 1.10024
HEad  -10.2719 12.0338 -4.4559
LeftShoulder1  10.1482 -13.7662 -51.2852
LeftArm  27.2628 1.12479 -32.8963
LeftForeArm  34.1337 -23.452 -3.38454
LeftHand  -0.244104 0.0205437 5.32207
RightShoulder  6.09074 10.0078 38.9948
RightArm  12.1096 -10.5589 34.6228
RightForeArm  2.2034 24.5371 5.08289
RightHand  -0.128216 -3.66757 -7.55983
LeftUpLeg  -0.16679 7.13417 4.82075
LeftLeg  2.06457 18.2177 -4.8249
LeftFoot  -4.60879 0.0621428 -0.588681
LeftToes  -5.82109e-011 8.55049e-011 -1.09726e-011
28
root  76.6017 40.2782 -4.85345 -177.8 -81.6505 -177.5
RightUpLeg  -2.63951 -7.19024 -5.80496
RightLeg  4.45653 0.720289 2.39471
RightFoot  -4.87913 -0.117331 1.49525
RightToes  1.74622e-010 0 -3.6325e-017
Spine  2.77242 -1.86481 0.919812
Spine1  8.92987 -2.42555 1.3085
HEad  -10.8451 12.6905 -4.66496
LeftShoulder1  9.93209 -13.7286 -50.3152
LeftArm  27.8072 1.0441 -32.0459
LeftForeArm  35.6832 -26.2385 -3.71118
LeftHand  -0.244104 0.0205437 5.32207
RightShoulder  6.02241 10.0916 38.2436
RightArm  14.6358 -11.1536 33.4217
RightForeArm  4.20097 28.2743 5.89295
RightHand  -0.050956 -4.84467 -6.66425
LeftUpLeg  -0.198411 7.20902 5.03526
LeftLeg  2.44528 18.1537 -4.59951
LeftFoot  -5.01924 0.0896256 -1.0768
LeftToes  -5.82109e-011 8.55049e-011 -1.09726e-011
29
root  76.3898 40.2338 -5.04005 -176.905 -81.1144 -178.204
RightUpLeg  -2.62918 -7.14294 -5.69899
RightLeg  4.8504 0.857803 2.29691
RightFoot  -6.25089 -0.127633 1.9065
RightToes  1.74622e-010 0 -3.6325e-017
Spine  3.04658 -2.01048 0.591282
Spine1  8.55552 -2.57302 1.27104
HEad  -11.807 12.9746 -4.98461
LeftShoulder1  9.54941 -13.2402 -49.7906
LeftArm  23.354 1.18385 -30.8178
LeftForeArm  36.4466 -28.4838 -4.18655
LeftHand  -0.244104 0.0205437 5.32207
RightShoulder  5.964 10.0539 37.9473
RightArm  14.5848 -12.5122 32.4767
RightForeArm  4.54043 32.0746 6.81617
RightHand  -0.0219415 -5.40815 -6.9037
LeftUpLeg  0.0725905 7.25204 5.17286
LeftLeg  2.4857 18.5048 -4.49048
LeftFoot  -5.50937 0.122079 -1.74871
LeftToes  -5.82109e-011 8.55049e-011 -1.09726e-011
30
root  76.1539 40.1761 -5.2984 -175.538 -80.761 -179.191
RightUpLeg  -3.08829 -7.09626 -5.41886
RightLeg  5.87226 0.67686 2.03874
RightFoot  -7.70642 -0.111094 1.84176
RightToes  1.74622e-010 0 -3.6325e-017
Spine  2.99841 -2.04991 0.289628
Spine1  8.38268 -2.6028 1.24505
HEad  -13.0827 12.9711 -5.46602
LeftShoulder1  9.14279 -12.6257 -49.4848
LeftArm  16.4378 1.55104 -29.0793
LeftForeArm  34.8559 -31.6114 -4.98445
LeftHand  -0.244104 0.0205437 5.32207
RightShoulder  5.86727 9.86771 37.8418
RightArm  12.177 -14.7011 32.3345
RightForeArm  3.556 35.7649 7.88074
RightHand  -0.0197597 -5.45104 -6.94513
LeftUpLeg  0.239417 7.26153 5.3326
LeftLeg  2.3573 18.733 -4.45118
LeftFoot  -6.07409 0.154979 -2.574
LeftToes  -5.82109e-011 8.55049e-011 -1.09726e-011
